<svg id="Layer_1" data-name="Layer 1" xmlns="http://www.w3.org/2000/svg" viewBox="0 0 512 512"><defs><style>.cls-1{fill:#c29d58;}.cls-2{fill:#101343;}</style></defs><g id="Icons"><circle class="cls-1" cx="187.73" cy="366.93" r="8.53"/><path class="cls-2" d="M110.93,230.4H401.07a8.53,8.53,0,0,0,8.53-8.53V204.8a8.53,8.53,0,0,0-8.53-8.53H110.93a8.53,8.53,0,0,0-8.53,8.53v17.07A8.53,8.53,0,0,0,110.93,230.4Z"/><path class="cls-2" d="M187.73,102.4h21.61l71.11-85.33H208.84L139,102.4Z"/><path class="cls-2" d="M375.47,102.4A8.53,8.53,0,0,0,384,93.87V30.54L325.21,102.4Z"/><path class="cls-2" d="M196.27,119.47H315.73V179.2H196.27Z"/><path class="cls-2" d="M303.16,102.4,373,17.07H302.66L231.55,102.4Z"/><path class="cls-2" d="M136.53,17.07A8.53,8.53,0,0,0,128,25.6V88.93l58.79-71.86Z"/><rect class="cls-2" x="17.07" y="469.33" width="477.87" height="25.6" rx="8.53"/><path class="cls-2" d="M409.6,426.67a8.53,8.53,0,0,0-8.53-8.54H110.93a8.53,8.53,0,0,0-8.53,8.54v25.6H409.6Z"/><path class="cls-1" d="M307.2,315.73V247.47H290.13v68.26a8.54,8.54,0,1,0,17.07,0Z"/><path class="cls-1" d="M341.33,290.13V247.47H324.27v42.66a8.53,8.53,0,1,0,17.06,0Z"/><path class="cls-1" d="M145.07,247.47v153.6H366.93V247.47H358.4v42.66a25.6,25.6,0,0,1-25.6,25.6,25.11,25.11,0,0,1-8.53-1.57v1.57a25.6,25.6,0,1,1-51.2,0V247.47H213.33V307.2a25.6,25.6,0,0,1-51.2,0V247.47Zm42.66,93.86a25.6,25.6,0,1,1-25.6,25.6A25.6,25.6,0,0,1,187.73,341.33Z"/><path class="cls-1" d="M196.27,307.2V247.47H179.2V307.2a8.54,8.54,0,0,0,17.07,0Z"/></g></svg>