<svg id="Layer_1" data-name="Layer 1" xmlns="http://www.w3.org/2000/svg" viewBox="0 0 512 512"><defs><style>.cls-1{fill:#101343;}.cls-2{fill:#c29d58;}</style></defs><path class="cls-1" d="M410.71,115.88H379.39a31.79,31.79,0,0,0-30.55-23.29H329.9V51.2a8.51,8.51,0,0,0-8.53-8.53H190.72a8.5,8.5,0,0,0-8.53,8.53V92.59H163.24a31.71,31.71,0,0,0-30.63,23.29H101.38a8.54,8.54,0,1,0,0,17.07h31.23a31.73,31.73,0,0,0,30.63,23.21h18.95v92.25a8.5,8.5,0,0,0,8.53,8.53h18V285a8.56,8.56,0,0,0,8.53,8.54h77.57a8.56,8.56,0,0,0,8.53-8.54V256.94h18a8.51,8.51,0,0,0,8.53-8.53V156.16h18.94A31.81,31.81,0,0,0,379.39,133h31.32a8.54,8.54,0,0,0,0-17.07Zm-134.4,86.19H235.78a8.54,8.54,0,1,1,0-17.07h40.53a8.54,8.54,0,0,1,0,17.07Zm0-43.69H235.78a8.54,8.54,0,1,1,0-17.07h40.53a8.51,8.51,0,0,1,8.53,8.54A8.61,8.61,0,0,1,276.31,158.38Zm0-43.78H235.78a8.53,8.53,0,1,1,0-17.06h40.53a8.53,8.53,0,0,1,0,17.06Z"/><path class="cls-2" d="M225.54,434.18a8.32,8.32,0,0,0,2,5.37l21.84,26.71a8.67,8.67,0,0,0,6.66,3.07,8.47,8.47,0,0,0,6.57-3.07l21.85-26.71a8.32,8.32,0,0,0,2-5.37V310.61H225.54Z"/></svg>