<svg id="Layer_1" data-name="Layer 1" xmlns="http://www.w3.org/2000/svg" viewBox="0 0 512 512"><defs><style>.cls-1{fill:#101343;}.cls-2{fill:#c29d58;}</style></defs><g id="_01Loader" data-name="01Loader"><path class="cls-1" d="M315.41,257.81a78.58,78.58,0,0,1,28-.06l-3.89-10.56a26.1,26.1,0,0,0-24.43-17h-1.6a59.74,59.74,0,0,1,1.92,15.2v12.38Z"/><path class="cls-1" d="M123,245.86a80.57,80.57,0,0,1,50,17.28H302.08V245.43a48.89,48.89,0,0,0-44.88-48.65l-24.46-76.45a19.37,19.37,0,0,0-18.49-13.5H161.88a19.44,19.44,0,0,0-19.4,19.42v70.33H95.41v-11.2a37.93,37.93,0,0,0-15.09-30.2,5.34,5.34,0,0,0-6.4,8.54,27.2,27.2,0,0,1,10.83,21.66v11.2H55.25a39,39,0,0,0-38.88,38.93v27.63h56.8A80.41,80.41,0,0,1,123,245.86Zm99.54-122.28L247.35,201l-8.26,11.53A8.64,8.64,0,0,1,232,216.2H204.43a8.66,8.66,0,0,1-7.1-3.68l-5.6-7.78a19.45,19.45,0,0,0-13.53-7.89V117.5h36.05A8.72,8.72,0,0,1,222.58,123.58Zm-69.43,2.67a8.76,8.76,0,0,1,8.73-8.75h5.65v79.08H153.15Z"/><path class="cls-1" d="M62,273.81H3.09a21.1,21.1,0,0,0-3.09,11v10.93a28.21,28.21,0,0,0,5.28,16.53l16.8,23.74A28.64,28.64,0,0,0,45,348.1a80.92,80.92,0,0,1,17-74.29Z"/><path class="cls-1" d="M279.57,273.81H184.21a80.33,80.33,0,0,1,19.84,53,78,78,0,0,1-2.88,21.28h48.11a70,70,0,0,1-.75-10.61,80.83,80.83,0,0,1,31-63.68Z"/><path class="cls-1" d="M506.67,383.82H496L462.19,275.56A11.69,11.69,0,0,0,449,267.51a37.33,37.33,0,0,0-30.83,36.85v8.06H406.51a80.66,80.66,0,0,1,.42,48.85h11.2v6.46a37.49,37.49,0,0,0,37.44,37.44h39.84a5.36,5.36,0,0,0,5.12-6.94l-1.17-3.75h7.31a5.33,5.33,0,1,0,0-10.66Z"/><path class="cls-1" d="M329.5,314.73a22.79,22.79,0,1,0,22.8,22.77A22.79,22.79,0,0,0,329.5,314.73Z"/><path class="cls-2" d="M329.49,269.86a67.65,67.65,0,1,0,67.68,67.63A67.71,67.71,0,0,0,329.49,269.86Zm0,101.11A33.46,33.46,0,1,1,363,337.5,33.49,33.49,0,0,1,329.5,371Z"/><path class="cls-2" d="M123,259.19a67.66,67.66,0,1,0,67.68,67.63A67.67,67.67,0,0,0,123,259.19Zm0,101.11a33.45,33.45,0,1,1,33.46-33.47A33.49,33.49,0,0,1,123.08,360.3Z"/><path class="cls-1" d="M123.08,304.06a22.79,22.79,0,1,0,22.8,22.77A22.8,22.8,0,0,0,123.08,304.06Z"/></g></svg>