<svg id="Layer_1" data-name="Layer 1" xmlns="http://www.w3.org/2000/svg" viewBox="0 0 512 512"><defs><style>.cls-1{fill:#c29d58;}.cls-2{fill:#101343;}</style></defs><path class="cls-1" d="M358.73,256a102.89,102.89,0,0,0-89.94-101.94v32.57a70.53,70.53,0,0,1,0,138.73v32.57A102.87,102.87,0,0,0,358.73,256Z"/><path class="cls-1" d="M384.31,256c0,66.43-50.75,121.23-115.52,127.67V416c82.54-6.54,147.7-75.79,147.7-160S351.33,102.56,268.79,96v32.31C333.56,134.77,384.31,189.57,384.31,256Z"/><path class="cls-1" d="M474.25,256A218.23,218.23,0,0,0,268.79,38.13V70.37a186.07,186.07,0,0,1,118.78,317.2,184.72,184.72,0,0,1-118.78,54.06v32.24A218.23,218.23,0,0,0,474.25,256Z"/><path class="cls-1" d="M301,256a45,45,0,0,0-32.18-43.11v86.22A45,45,0,0,0,301,256Z"/><path class="cls-2" d="M234.5,268.79a33.76,33.76,0,0,0-33.45,30.78,33.56,33.56,0,0,0,39.43,35.81l2.73-.49v-66.1Z"/><path class="cls-2" d="M166.75,68.14a78.07,78.07,0,0,0,76.46,60.93V38.13a217.12,217.12,0,0,0-78.83,19.68Z"/><path class="cls-2" d="M104.39,376.3A40.5,40.5,0,0,0,118,317.22a51.73,51.73,0,0,1,11-71.45,25.26,25.26,0,0,0-15.15-45.47H44.9A219.36,219.36,0,0,0,37.75,256,216.62,216.62,0,0,0,82.39,388.3Z"/><path class="cls-2" d="M234.33,361.52a59.16,59.16,0,0,1,.17-118.31h8.71V154.64A104.06,104.06,0,0,1,141.82,73.86L141,70.4a220.35,220.35,0,0,0-39.35,31.27,217.79,217.79,0,0,0-48.33,73.05h60.51a50.84,50.84,0,0,1,30.5,91.51,26.32,26.32,0,0,0-5.59,36.13,66.07,66.07,0,0,1-22.13,96.4L99.5,408.1c.72.74,1.44,1.49,2.17,2.23a216.69,216.69,0,0,0,141.54,63.54v-113A60.56,60.56,0,0,1,234.33,361.52Z"/></svg>