<svg id="Layer_1" data-name="Layer 1" xmlns="http://www.w3.org/2000/svg" viewBox="0 0 512 512"><defs><style>.cls-1,.cls-3{fill:#101343;}.cls-1{fill-rule:evenodd;}.cls-2{fill:#c29d58;}</style></defs><g id="Page-1"><g id="_051---Dumper-Truck" data-name="051---Dumper-Truck"><path id="Path" class="cls-1" d="M387.89,248.18H428V185.64a23.45,23.45,0,0,0-23.45-23.46H364.44l-57.33,86H330l28.93-43.43a7.82,7.82,0,0,1,13,8.68L348.8,248.18h20.33l28.92-43.43a7.82,7.82,0,0,1,13,8.68Z"/><g id="Shape"><path class="cls-2" d="M185.65,365.45A62.55,62.55,0,1,0,123.11,428H373.29a62.76,62.76,0,1,0-41.24-15.64H164.34a62.36,62.36,0,0,0,21.31-46.91Zm187.64-31.27A31.27,31.27,0,1,1,342,365.45,31.27,31.27,0,0,1,373.29,334.18ZM91.84,365.45A31.26,31.26,0,1,1,101,387.57,31.27,31.27,0,0,1,91.84,365.45Z"/></g><circle id="Oval" class="cls-3" cx="123.11" cy="365.45" r="15.64"/><path id="Path-2" data-name="Path" class="cls-1" d="M467.1,357.63h-16a77.12,77.12,0,0,1,0,15.64h16a7.52,7.52,0,0,0,5.43-2.24,7.65,7.65,0,0,0,2.39-5.58,7.82,7.82,0,0,0-7.82-7.82Z"/><path id="Shape-2" data-name="Shape" class="cls-3" d="M467.1,84H319a23.48,23.48,0,0,0-19.08,9.82l-20.39,28.54a39.15,39.15,0,0,1-31.81,16.37H44.93a7.82,7.82,0,0,0-7.82,7.82v66.06A7.82,7.82,0,0,0,43,220.18l104.21,26.89,24.24-34.64a7.82,7.82,0,0,1,12.8,9l-20.89,29.85,17,4.38,30.22-43.19a7.82,7.82,0,0,1,12.8,9l-26.85,38.4,16.9,4.36,36.24-51.73a7.82,7.82,0,1,1,12.8,9l-32.83,46.9,33.3,8.6a7.8,7.8,0,0,0,8.46-3.23L363,136.16a46.84,46.84,0,0,1,39-20.89H467.1a7.82,7.82,0,0,0,7.82-7.82V91.82A7.82,7.82,0,0,0,467.1,84ZM84,170H68.38v15.64a7.82,7.82,0,1,1-15.63,0V162.18a7.81,7.81,0,0,1,7.81-7.81H84A7.82,7.82,0,1,1,84,170Z"/><path id="Path-3" data-name="Path" class="cls-1" d="M284.32,282.36a23.46,23.46,0,0,1-19.55,10.45,23.09,23.09,0,0,1-5.85-.78L57.52,240.08l-18,35.84a23.23,23.23,0,0,0,7.23,29.26l15.49,11.28A78.1,78.1,0,0,1,197.68,342h101a78.18,78.18,0,0,1,149.15,0h11.42V279.45a15.63,15.63,0,0,0-15.63-15.63h-147Z"/><path id="Path-4" data-name="Path" class="cls-1" d="M295.5,373.27a77.12,77.12,0,0,1,0-15.64H200.91a77.12,77.12,0,0,1,0,15.64Z"/><circle id="Oval-2" data-name="Oval" class="cls-3" cx="373.29" cy="365.45" r="15.64"/></g></g></svg>