<svg id="Layer_1" data-name="Layer 1" xmlns="http://www.w3.org/2000/svg" viewBox="0 0 512 512"><defs><style>.cls-1{fill:#c29d58;}.cls-2{fill:#101343;}</style></defs><path class="cls-1" d="M432,272a175,175,0,0,1-31,99.71l19.09,19.09a8,8,0,0,1,0,11.31l-33.94,33.94a8,8,0,0,1-11.31,0L355.71,417A175,175,0,0,1,288,445v27a8,8,0,0,1-8,8H232a8,8,0,0,1-8-8V445a175,175,0,0,1-67.71-28L137.2,436.06a8,8,0,0,1-11.31,0L92,402.12a8,8,0,0,1,0-11.31L111,371.72A175,175,0,0,1,80,272h64a112,112,0,0,0,224,0Z"/><path class="cls-2" d="M480,216a24,24,0,0,1-24,24H56a24,24,0,0,1,0-48H74c14.91-49.36,46.29-91.75,88.7-117.43l9.75,87.2a16,16,0,1,0,31.8-3.55L192.1,49.74a15.92,15.92,0,0,1,4-12.29A16.66,16.66,0,0,1,208.43,32h95.14a16.6,16.6,0,0,1,12.33,5.44,15.61,15.61,0,0,1,4,12L307.76,158.23a16,16,0,0,0,31.82,3.55l9.75-87.2C391.74,100.26,423.12,142.65,438,192h18a24,24,0,0,1,24,24Z"/></svg>