<svg id="Layer_1" data-name="Layer 1" xmlns="http://www.w3.org/2000/svg" viewBox="0 0 512 512"><defs><style>.cls-1{fill:#101343;}.cls-2{fill:#c29d58;}</style></defs><path class="cls-1" d="M292.61,435.3c-2.09,1.73-4.18,3.31-6.27,4.9-8.87,6.63-15.93,11.89-15.93,24.79h36a33.29,33.29,0,0,0-6-13.84A79.29,79.29,0,0,1,292.61,435.3Z"/><path class="cls-1" d="M277.69,428.67a36,36,0,0,0,14.7-16.43l.44-1.08a54.12,54.12,0,0,1,15.78-21.7,55.71,55.71,0,0,0,19.6-34,4.91,4.91,0,0,0,.14-1,52.77,52.77,0,0,0-19-49.44,7.27,7.27,0,0,1-1.73-1.94L289,300a7.28,7.28,0,0,0-6.85,2.59L201.52,403.44a7.35,7.35,0,0,1-7.93,2.31l-56.07-18.66a7,7,0,0,0-7.13,1.51L47,465H256C256,444.88,268,435.87,277.69,428.67Z"/><path class="cls-1" d="M320.86,465H457.71c-1.15-6.92-10.09-49.15-56.72-43.31a3.53,3.53,0,0,1-.86.07,61.8,61.8,0,0,1-48.71-11.82,61,61,0,0,1-18.09-27.39,81.17,81.17,0,0,1-14.71,17.3,40.19,40.19,0,0,0-12.53,17c-3.32,9.94,1.58,18.16,6.77,26.95A43.53,43.53,0,0,1,320.86,465Z"/><path class="cls-1" d="M348,286.55l-17.3,17.3a5.78,5.78,0,0,1-1.51,1.08,64.13,64.13,0,0,1,13.54,51.38c.8,11.39,4.26,31.21,17.88,42.52a48.6,48.6,0,0,0,38.05,8.65h.07c10.31-2.67,16.14-9.94,22.84-18.45,9.37-11.67,20-24.93,43.46-24.93V169.52l-19.75,46a7.21,7.21,0,0,1-6.63,4.4H413.68a7.2,7.2,0,0,0-7.13,6.34l-5.77,45.83a7.21,7.21,0,0,1-6.12,6.27l-42.6,6.06A7.22,7.22,0,0,0,348,286.55Z"/><path class="cls-1" d="M465,441.5v-63c-16.58,0-23.42,8.65-32.21,19.53a114.16,114.16,0,0,1-8.72,10.16,56.61,56.61,0,0,1,36.1,24.86A68.4,68.4,0,0,1,465,441.5Z"/><path class="cls-2" d="M224.88,158.71s79.76,76.73,102.47,134c0,0,12.12-56.06-64.51-145.84l5.51-5A14.41,14.41,0,0,0,249,120.52l-5.51,5c-81.91-85-138.84-78.39-138.84-78.39C159.38,75.31,224.88,158.71,224.88,158.71Z"/><path class="cls-1" d="M234.38,292s28.83-21.62,43.24-21.62c0,0-21.62-14.41-36-14.41S234.38,292,234.38,292Z"/><path class="cls-1" d="M349.68,248.79s28.83,7.21,28.83-7.21-21.62-28.82-21.62-28.82C364.1,227.17,349.68,248.79,349.68,248.79Z"/><path class="cls-1" d="M328.07,176.73a7.2,7.2,0,0,0,7.2-7.21V155.11a7.21,7.21,0,1,0-14.41,0v14.41A7.21,7.21,0,0,0,328.07,176.73Z"/><path class="cls-1" d="M346.46,190.42a7.21,7.21,0,0,0,9.68-3.23l7.2-14.41a7.21,7.21,0,1,0-12.9-6.45l-7.2,14.42a7.19,7.19,0,0,0,3.22,9.67Z"/><path class="cls-2" d="M92.27,301.62,224.15,178.38c-5.62-5.76-9.16-9.15-9.3-9.29l-.72-.72-.58-.8c-.14-.14-3.31-4.18-8.72-10.59l-132,123.3a14.42,14.42,0,1,0,19.39,21.34Z"/></svg>