<svg id="Layer_1" data-name="Layer 1" xmlns="http://www.w3.org/2000/svg" viewBox="0 0 512 512"><defs><style>.cls-1{fill:#c29d58;}.cls-2{fill:#101343;}</style></defs><circle class="cls-1" cx="373.89" cy="342.68" r="90.15"/><path class="cls-1" d="M117.3,266.4a83.22,83.22,0,1,0,83.22,83.22A83.21,83.21,0,0,0,117.3,266.4Zm0,124.83a41.61,41.61,0,1,1,41.61-41.61A41.6,41.6,0,0,1,117.3,391.23Z"/><path class="cls-2" d="M452.88,315H260.62a35.16,35.16,0,0,0-22.88,8.12c-5.85,5-9.48,11.95-9.48,19.61a23.93,23.93,0,0,0,1,6.94c3.59,12,16.26,20.8,31.34,20.8H471V315Z"/><path class="cls-2" d="M471,308H273.22V266.62a14.09,14.09,0,0,0-14.09-14.09H158.91A6.93,6.93,0,0,1,152,245.6V222.14a11.22,11.22,0,0,0-11.22-11.22H124.24v-16a68.37,68.37,0,0,0-20.15-48.65l-2.69-2.68a6.93,6.93,0,1,0-9.8,9.8l2.68,2.69a54.58,54.58,0,0,1,16.09,38.84v16H90.67a46.82,46.82,0,0,0-46.82,46.82v9.87a7.93,7.93,0,0,0,12.93,6.14,97,97,0,0,1,157.61,75.87v.16a6.78,6.78,0,0,0,6.78,6.77h3.42c6.16,12.47,20.23,20.81,36,20.81H471a6.94,6.94,0,0,0,6.93-6.94V315A6.94,6.94,0,0,0,471,308ZM464,363.49H260.62c-11.74,0-21.89-6.52-24.7-15.86a17.28,17.28,0,0,1-.72-4.95,18.91,18.91,0,0,1,7.05-14.35,28.14,28.14,0,0,1,18.37-6.45H464Z"/><path class="cls-2" d="M311,172.58l-34.67-89a6.94,6.94,0,0,0-6.46-4.42h-104a6.94,6.94,0,0,0-6.94,6.94V238.66a6.94,6.94,0,0,0,6.94,6.94H304.54a6.94,6.94,0,0,0,6.94-6.94V175.09A6.75,6.75,0,0,0,311,172.58Zm-82.74-5.67a9.34,9.34,0,0,1-9.34,9.34h-36.8a9.34,9.34,0,0,1-9.34-9.34V116.24a9.34,9.34,0,0,1,9.34-9.34h36.8a9.34,9.34,0,0,1,9.34,9.34Zm60.1,9.34H251.47a9.34,9.34,0,0,1-9.34-9.34V116.24a9.34,9.34,0,0,1,9.34-9.34H266.2a6.19,6.19,0,0,1,5.77,4l21.92,57h0A6.15,6.15,0,0,1,288.36,176.25Z"/></svg>