<svg id="Layer_1" data-name="Layer 1" xmlns="http://www.w3.org/2000/svg" viewBox="0 0 512 512"><defs><style>.cls-1{fill:#101343;}.cls-1,.cls-2{fill-rule:evenodd;}.cls-2{fill:#c29d58;}</style></defs><g id="Layer_1-2" data-name="Layer_1"><g id="_285221064" data-name=" 285221064"><path class="cls-1" d="M200,258.8V144H162.67a5.38,5.38,0,0,1-5.6-5.6,6,6,0,0,1,5.6-5.6H230.8a5.14,5.14,0,0,1,4.67,2.8L259.73,172h229.6a6,6,0,0,1,5.6,5.6V228a3.44,3.44,0,0,1-.93,2.8l-19.6,29.87a46.52,46.52,0,0,0-11.2-1.87Z"/><path class="cls-1" d="M169.2,363.33H144a38.37,38.37,0,0,0,.93-10.26A49.79,49.79,0,0,0,95.47,303.6a38.68,38.68,0,0,0-14.94,2.8V290.53h47.6a6,6,0,0,0,5.6-5.6v-50.4a6,6,0,0,0-5.6-5.6H60.93a6.31,6.31,0,0,0-5.6,3.74L43.2,284v25.2a5.38,5.38,0,0,0,5.6,5.6H64.67C53.47,324.13,46,337.2,46,353.07c0,3.73.93,6.53.93,10.26H23.6a5.38,5.38,0,0,1-5.6-5.6l-.93-67.2v-1.86l25.2-78.4c.93-2.8,2.8-4.67,4.66-4.67H169.2c2.8,0,4.67,2.8,4.67,5.6V357.73C173.87,360.53,172,363.33,169.2,363.33ZM53.47,303.6H69.33V284.93a6,6,0,0,1,5.6-5.6h47.6v-39.2H65.6L53.47,285.87Z"/><path class="cls-1" d="M302.67,363.33h-11.2c0-3.73.93-6.53.93-10.26,0-12.14-4.67-24.27-13.07-32.67H314.8c-8.4,8.4-13.07,20.53-13.07,32.67A38,38,0,0,0,302.67,363.33Z"/><path class="cls-1" d="M194.4,363.33H184.13a11.74,11.74,0,0,0,.94-5.6V320.4h21.46c-8.4,8.4-13.06,20.53-13.06,32.67A38.37,38.37,0,0,0,194.4,363.33Z"/><path class="cls-1" d="M442.67,363.33H399.73c0-3.73.94-6.53.94-10.26,0-12.14-4.67-24.27-13.07-32.67h70a5.38,5.38,0,0,1,5.6,5.6v17.73C463.2,354,453.87,363.33,442.67,363.33Z"/><path class="cls-1" d="M482.8,309.2V289.6c0-10.27-9.33-19.6-19.6-19.6H185.07v39.2h35.46a47.58,47.58,0,0,1,44.8,0H328.8c14-6.53,30.8-7.47,44.8,0Z"/></g></g><path class="cls-2" d="M275.6,160.8c12.13-23.33,45.73-40.13,84.93-40.13s72.8,16.8,84.94,40.13Z"/><path class="cls-2" d="M95.47,391.33a38.27,38.27,0,1,1,38.26-38.26A37.85,37.85,0,0,1,95.47,391.33Zm0-18.66c-10.27,0-18.67-9.34-18.67-19.6A18.72,18.72,0,0,1,95.47,334.4c10.26,0,19.6,8.4,19.6,18.67S105.73,372.67,95.47,372.67Zm0-28a8.4,8.4,0,1,0,8.4,8.4A8.36,8.36,0,0,0,95.47,344.67Z"/><path class="cls-2" d="M242.93,391.33a38.27,38.27,0,1,1,38.27-38.26A37.85,37.85,0,0,1,242.93,391.33Zm0-18.66a19.72,19.72,0,0,1-19.6-19.6c0-10.27,9.34-18.67,19.6-18.67a18.72,18.72,0,0,1,18.67,18.67C261.6,364.27,253.2,372.67,242.93,372.67Zm0-28a8.4,8.4,0,1,0,8.4,8.4A8.37,8.37,0,0,0,242.93,344.67Z"/><path class="cls-2" d="M351.2,391.33a38.27,38.27,0,1,1,38.27-38.26A37.85,37.85,0,0,1,351.2,391.33Zm0-18.66a19.71,19.71,0,0,1-19.6-19.6c0-10.27,9.33-18.67,19.6-18.67a18.72,18.72,0,0,1,18.67,18.67C369.87,364.27,361.47,372.67,351.2,372.67Zm0-28a8.4,8.4,0,1,0,8.4,8.4A8.36,8.36,0,0,0,351.2,344.67Z"/></svg>